<?xml version="1.0" encoding="utf-8"?><svg xmlns="http://www.w3.org/2000/svg" xmlns:xlink="http://www.w3.org/1999/xlink" width="1280" height="817" preserveAspectRatio="xMidYMid" viewBox="0 0 1280 817" style="z-index:1;margin-right:-2px;display:block;background-repeat-y:initial;background-repeat-x:initial;background-color:rgb(0, 124, 197);animation-play-state:paused" ><g transform="" style="animation-play-state:paused" ><defs style="animation-play-state:paused" ><filter id="blur-aailt1ad59u-1" x="-1" y="-1" width="3" height="3" style="animation-play-state:paused" ><feGaussianBlur stdDeviation="3" style="animation-play-state:paused" ></feGaussianBlur></filter>
<filter id="blur-aailt1ad59u-2" x="-1" y="-1" width="3" height="3" style="animation-play-state:paused" ><feGaussianBlur stdDeviation="1.5" style="animation-play-state:paused" ></feGaussianBlur></filter>
<filter id="blur-aailt1ad59u-3" x="-1" y="-1" width="3" height="3" style="animation-play-state:paused" ><feGaussianBlur stdDeviation="1" style="animation-play-state:paused" ></feGaussianBlur></filter></defs>
<circle cx="1137.570383057901" cy="0" transform="matrix(1,0,0,1,0,800.9623413085938)" r="5.183810186243032" fill="#bbddff" opacity="0.36000000000000004" style="transform:matrix(1, 0, 0, 1, 0, 800.962);opacity:0.36;animation-play-state:paused" ></circle>
<circle cx="177.74727764702703" cy="0" transform="matrix(1,0,0,1,0,495.2250061035156)" r="14.713658446857108" fill="#ddeeff" opacity="0.7200000000000001" style="transform:matrix(1, 0, 0, 1, 0, 495.225);opacity:0.72;animation-play-state:paused" ></circle>
<circle cx="286.3058253132479" cy="0" transform="matrix(1,0,0,1,0,680.4152221679688)" r="11.535640590621844" fill="#ddeeff" opacity="0.63" style="transform:matrix(1, 0, 0, 1, 0, 680.415);opacity:0.63;animation-play-state:paused" ></circle>
<circle cx="631.0957538228863" cy="0" transform="matrix(1,0,0,1,0,263.8863525390625)" r="8.238686043449977" fill="#bbddff" opacity="0.63" style="transform:matrix(1, 0, 0, 1, 0, 263.886);opacity:0.63;animation-play-state:paused" ></circle>
<circle cx="599.1239030802666" cy="0" transform="matrix(1,0,0,1,0,551.9034423828125)" r="4.276902884148945" fill="#bbddff" opacity="0.36000000000000004" style="transform:matrix(1, 0, 0, 1, 0, 551.903);opacity:0.36;animation-play-state:paused" ></circle>
<circle cx="253.86544248420392" cy="0" transform="matrix(1,0,0,1,0,677.0255737304688)" r="9.43972111457878" fill="#aabbcc" opacity="0.63" style="transform:matrix(1, 0, 0, 1, 0, 677.026);opacity:0.63;animation-play-state:paused" ></circle>
<circle cx="1134.937333640395" cy="0" transform="matrix(1,0,0,1,0,153.0748291015625)" r="7.362992387388065" fill="#ddeeff" opacity="0.36000000000000004" style="transform:matrix(1, 0, 0, 1, 0, 153.075);opacity:0.36;animation-play-state:paused" ></circle>
<circle cx="331.5695674116688" cy="0" transform="matrix(1,0,0,1,0,678.7764892578125)" r="5.485158142563729" fill="#bbddff" opacity="0.36000000000000004" style="transform:matrix(1, 0, 0, 1, 0, 678.776);opacity:0.36;animation-play-state:paused" ></circle>
<circle cx="122.03099479349788" cy="0" transform="matrix(1,0,0,1,0,663.3170166015625)" r="4.78035556534944" fill="#bbddff" opacity="0.36000000000000004" style="transform:matrix(1, 0, 0, 1, 0, 663.317);opacity:0.36;animation-play-state:paused" ></circle>
<circle cx="231.25566155923167" cy="0" transform="matrix(1,0,0,1,0,729.8295288085938)" r="6.641057283480602" fill="#bbddff" opacity="0.36000000000000004" style="transform:matrix(1, 0, 0, 1, 0, 729.83);opacity:0.36;animation-play-state:paused" ></circle>
<circle cx="565.7297509379762" cy="0" transform="matrix(1,0,0,1,0,757.619140625)" r="12.435514330854465" fill="#bbddff" opacity="0.7200000000000001" style="transform:matrix(1, 0, 0, 1, 0, 757.619);opacity:0.72;animation-play-state:paused" ></circle>
<circle cx="1012.9433650880353" cy="0" transform="matrix(1,0,0,1,0,293.939208984375)" r="8.817049789326752" fill="#ddeeff" opacity="0.63" style="transform:matrix(1, 0, 0, 1, 0, 293.939);opacity:0.63;animation-play-state:paused" ></circle>
<circle cx="1082.26832580704" cy="0" transform="matrix(1,0,0,1,0,174.7589111328125)" r="8.693255750750335" fill="#bbddff" opacity="0.63" style="transform:matrix(1, 0, 0, 1, 0, 174.759);opacity:0.63;animation-play-state:paused" ></circle>
<circle cx="1049.7956091881067" cy="0" transform="matrix(1,0,0,1,0,730.3510131835938)" r="13.599053401983426" fill="#aabbcc" opacity="0.7200000000000001" style="transform:matrix(1, 0, 0, 1, 0, 730.351);opacity:0.72;animation-play-state:paused" ></circle>
<circle cx="845.2333936166218" cy="0" transform="matrix(1,0,0,1,0,318.0445861816406)" r="10.536876887888425" fill="#ddeeff" opacity="0.63" style="transform:matrix(1, 0, 0, 1, 0, 318.045);opacity:0.63;animation-play-state:paused" ></circle></g></svg>