<?xml version="1.0" encoding="utf-8"?><svg xmlns="http://www.w3.org/2000/svg" xmlns:xlink="http://www.w3.org/1999/xlink" width="1280" height="817" preserveAspectRatio="xMidYMid" viewBox="0 0 1280 817" style="z-index:1;margin-right:-2px;display:block;background-repeat-y:initial;background-repeat-x:initial;background-color:rgb(0, 153, 255);animation-play-state:paused" ><g transform="" style="animation-play-state:paused" ><defs style="animation-play-state:paused" ><filter id="blur-pfwr4wpm0vh-1" x="-1" y="-1" width="3" height="3" style="animation-play-state:paused" ><feGaussianBlur stdDeviation="3" style="animation-play-state:paused" ></feGaussianBlur></filter>
<filter id="blur-pfwr4wpm0vh-2" x="-1" y="-1" width="3" height="3" style="animation-play-state:paused" ><feGaussianBlur stdDeviation="1.5" style="animation-play-state:paused" ></feGaussianBlur></filter>
<filter id="blur-pfwr4wpm0vh-3" x="-1" y="-1" width="3" height="3" style="animation-play-state:paused" ><feGaussianBlur stdDeviation="1" style="animation-play-state:paused" ></feGaussianBlur></filter></defs>
<circle cx="861.9841272822367" cy="0" transform="matrix(1,0,0,1,0,703.5908813476562)" r="12.675578818590424" fill="#bbddff" opacity="0.7200000000000001" style="transform:matrix(1, 0, 0, 1, 0, 703.591);opacity:0.72;animation-play-state:paused" ></circle>
<circle cx="668.7657057091533" cy="0" transform="matrix(1,0,0,1,0,424.1281433105469)" r="15.96594176784692" fill="#ddeeff" opacity="0.7200000000000001" style="transform:matrix(1, 0, 0, 1, 0, 424.128);opacity:0.72;animation-play-state:paused" ></circle>
<circle cx="1148.2951514428323" cy="0" transform="matrix(1,0,0,1,0,738.6123046875)" r="14.497994692550868" fill="#ddeeff" opacity="0.7200000000000001" style="transform:matrix(1, 0, 0, 1, 0, 738.612);opacity:0.72;animation-play-state:paused" ></circle>
<circle cx="150.15074541325532" cy="0" transform="matrix(1,0,0,1,0,605.2947998046875)" r="6.215302342864555" fill="#bbddff" opacity="0.36000000000000004" style="transform:matrix(1, 0, 0, 1, 0, 605.295);opacity:0.36;animation-play-state:paused" ></circle>
<circle cx="376.5247307383288" cy="0" transform="matrix(1,0,0,1,0,605.6231689453125)" r="11.487875834497638" fill="#ddeeff" opacity="0.63" style="transform:matrix(1, 0, 0, 1, 0, 605.623);opacity:0.63;animation-play-state:paused" ></circle>
<circle cx="21.689973113690257" cy="0" transform="matrix(1,0,0,1,0,416.396728515625)" r="9.385996738818871" fill="#aabbcc" opacity="0.63" style="transform:matrix(1, 0, 0, 1, 0, 416.397);opacity:0.63;animation-play-state:paused" ></circle>
<circle cx="679.7235322584663" cy="0" transform="matrix(1,0,0,1,0,231.384521484375)" r="10.855567319120095" fill="#ddeeff" opacity="0.63" style="transform:matrix(1, 0, 0, 1, 0, 231.385);opacity:0.63;animation-play-state:paused" ></circle>
<circle cx="910.9652039066611" cy="0" transform="matrix(1,0,0,1,0,80.20733642578125)" r="9.001006754163846" fill="#aabbcc" opacity="0.63" style="transform:matrix(1, 0, 0, 1, 0, 80.2073);opacity:0.63;animation-play-state:paused" ></circle>
<circle cx="391.652973854747" cy="0" transform="matrix(1,0,0,1,0,187.73809814453125)" r="11.245953080743904" fill="#ddeeff" opacity="0.63" style="transform:matrix(1, 0, 0, 1, 0, 187.738);opacity:0.63;animation-play-state:paused" ></circle>
<circle cx="467.18285125221655" cy="0" transform="matrix(1,0,0,1,0,547.41845703125)" r="12.444932764827488" fill="#aabbcc" opacity="0.7200000000000001" style="transform:matrix(1, 0, 0, 1, 0, 547.418);opacity:0.72;animation-play-state:paused" ></circle>
<circle cx="212.8584422020819" cy="0" transform="matrix(1,0,0,1,0,505.91485595703125)" r="8.056717993206707" fill="#bbddff" opacity="0.63" style="transform:matrix(1, 0, 0, 1, 0, 505.915);opacity:0.63;animation-play-state:paused" ></circle>
<circle cx="67.9228064999873" cy="0" transform="matrix(1,0,0,1,0,313.5518798828125)" r="4.808036850456502" fill="#aabbcc" opacity="0.36000000000000004" style="transform:matrix(1, 0, 0, 1, 0, 313.552);opacity:0.36;animation-play-state:paused" ></circle>
<circle cx="87.83868333491597" cy="0" transform="matrix(1,0,0,1,0,83.23291015625)" r="9.285086579264984" fill="#bbddff" opacity="0.63" style="transform:matrix(1, 0, 0, 1, 0, 83.2329);opacity:0.63;animation-play-state:paused" ></circle>
<circle cx="174.8828497611251" cy="0" transform="matrix(1,0,0,1,0,765.6871337890625)" r="14.653811098931257" fill="#bbddff" opacity="0.7200000000000001" style="transform:matrix(1, 0, 0, 1, 0, 765.687);opacity:0.72;animation-play-state:paused" ></circle>
<circle cx="238.48688538509236" cy="0" transform="matrix(1,0,0,1,0,338.6529235839844)" r="6.744645989666017" fill="#aabbcc" opacity="0.36000000000000004" style="transform:matrix(1, 0, 0, 1, 0, 338.653);opacity:0.36;animation-play-state:paused" ></circle></g></svg>